<?xml version="1.0" encoding="UTF-8" standalone="no"?>
<svg
   xmlns:dc="http://purl.org/dc/elements/1.1/"
   xmlns:cc="http://creativecommons.org/ns#"
   xmlns:rdf="http://www.w3.org/1999/02/22-rdf-syntax-ns#"
   xmlns:svg="http://www.w3.org/2000/svg"
   xmlns="http://www.w3.org/2000/svg"
   xmlns:sodipodi="http://sodipodi.sourceforge.net/DTD/sodipodi-0.dtd"
   xmlns:inkscape="http://www.inkscape.org/namespaces/inkscape"
   width="108.5807"
   height="26.930525"
   viewBox="0 0 108.5807 26.930525"
   fill="none"
   version="1.1"
   id="svg12"
   sodipodi:docname="kfo_logo.svg"
   inkscape:version="1.0.2-2 (e86c870879, 2021-01-15)">
  <metadata
     id="metadata18">
    <rdf:RDF>
      <cc:Work
         rdf:about="">
        <dc:format>image/svg+xml</dc:format>
        <dc:type
           rdf:resource="http://purl.org/dc/dcmitype/StillImage" />
        <dc:title />
      </cc:Work>
    </rdf:RDF>
  </metadata>
  <defs
     id="defs16" />
  <sodipodi:namedview
     pagecolor="#ffffff"
     bordercolor="#666666"
     borderopacity="1"
     objecttolerance="10"
     gridtolerance="10"
     guidetolerance="10"
     inkscape:pageopacity="0"
     inkscape:pageshadow="2"
     inkscape:window-width="2560"
     inkscape:window-height="1369"
     id="namedview14"
     showgrid="false"
     fit-margin-top="0"
     fit-margin-left="0"
     fit-margin-right="0"
     fit-margin-bottom="0"
     inkscape:zoom="12.140664"
     inkscape:cx="56.774527"
     inkscape:cy="12.131828"
     inkscape:window-x="1912"
     inkscape:window-y="-8"
     inkscape:window-maximized="1"
     inkscape:current-layer="svg12"
     inkscape:document-rotation="0" />
  <g
     id="g1101"
     transform="translate(-3.7477311,-0.87903014)"
     inkscape:export-xdpi="500"
     inkscape:export-ydpi="500">
    <path
       style="fill:#000000;fill-opacity:1;stroke:#000000;stroke-width:0.203754;stroke-linecap:butt;stroke-linejoin:miter;stroke-miterlimit:4;stroke-dasharray:none;stroke-opacity:1"
       d="M 41.850384,3.3309029 C 41.790832,2.8251618 41.008172,2.9814237 40.492639,2.7913255 39.504739,2.4270456 38.706069,1.6307194 37.703845,1.3079249 37.00094,1.081535 36.239746,0.90889633 35.508412,1.011245 34.482155,1.1548675 33.423291,1.556121 32.660284,2.2573013 31.972798,2.8890805 31.544599,3.812192 31.325222,4.7197464 c -0.413696,1.711457 -0.08556,3.5320442 0.118672,5.2809066 0.30259,2.591172 0.875759,5.157504 1.631742,7.654347 0.629014,2.077499 1.309578,4.177216 2.403109,6.052275 0.390204,0.669077 0.825336,1.362124 1.457442,1.809749 0.233237,0.165168 0.522954,0.29872 0.808449,0.285555 0.242009,-0.01116 0.489702,-0.131906 0.660117,-0.304098 0.312548,-0.315806 0.409168,-0.793387 0.545149,-1.216388 0.155586,-0.483991 0.229768,-0.991606 0.304097,-1.494526 0.142485,-0.964106 0.179854,-1.940841 0.270718,-2.911174 0.08103,-0.865369 0.116796,-1.736268 0.244764,-2.595951 0.08638,-0.580298 0.144181,-1.175917 0.352306,-1.724453 0.09469,-0.249586 0.220283,-0.496574 0.400519,-0.693491 0.09586,-0.104734 0.215388,-0.195635 0.348597,-0.244761 0.110679,-0.04082 0.234862,-0.04436 0.352311,-0.03338 0.190872,0.01785 0.510042,0.346395 0.552565,0.159466 0.01768,-0.0777 -0.362661,-0.31226 -0.585945,-0.374559 -0.145307,-0.04054 -0.311382,-0.04237 -0.452435,0.01112 -0.211629,0.08025 -0.374525,0.263532 -0.519191,0.437604 -0.208053,0.250348 -0.349188,0.552105 -0.482107,0.849246 -0.150207,0.335784 -0.253118,0.691574 -0.352306,1.045798 -0.193026,0.689346 -0.3292,1.393622 -0.470982,2.095303 -0.128849,0.637686 -0.232661,1.280184 -0.344889,1.921004 -0.106436,0.607745 -0.201273,1.217517 -0.311514,1.824583 -0.08413,0.463239 -0.130418,0.936413 -0.267009,1.386979 -0.05175,0.170718 -0.131676,0.33184 -0.207677,0.493231 -0.02613,0.05553 -0.02481,0.152758 -0.0853,0.163174 C 37.51195,24.629076 37.402198,24.361113 37.28478,24.21533 36.966012,23.81956 36.741435,23.354788 36.5097,22.902521 36.28253,22.459164 36.094919,21.996231 35.908927,21.534084 35.610045,20.791421 35.338248,20.03772 35.081931,19.279315 34.936084,18.847779 34.80836,18.410297 34.677703,17.973922 34.482446,17.321792 34.282431,16.670737 34.1103,16.012125 33.926361,15.30833 33.777794,14.595761 33.613364,13.887154 33.490068,13.355813 33.353334,12.827335 33.24622,12.292498 33.16397,11.881804 33.102818,11.467154 33.034836,11.053858 32.961706,10.609269 32.883044,10.165403 32.823451,9.7187978 32.725101,8.9817482 32.636018,8.2427602 32.5824,7.5011138 32.54781,7.0224181 32.53971,6.5420718 32.53048,6.0622152 32.52068,5.5530067 32.429749,5.0342606 32.52688,4.5343122 32.60326,4.1413224 32.759348,3.7562556 32.979321,3.421762 c 0.234388,-0.3564114 0.540981,-0.6779956 0.897454,-0.9122917 0.549422,-0.361117 1.19167,-0.5993532 1.839419,-0.7120322 0.489737,-0.085193 1.004333,-0.065073 1.490816,0.037083 0.523005,0.1098264 0.988609,0.4062578 1.483399,0.6081942 0.47438,0.1936049 0.929322,0.4453071 1.424067,0.578526 0.392985,0.1058191 0.802342,0.153688 1.208973,0.1705914 0.259746,0.010799 0.526898,0.1390615 0.526898,0.139061 z"
       id="path857"
       sodipodi:nodetypes="csssssssssssssssssssssssssssssssssssssssssssssssssssc" />
    <path
       style="fill:#000000;fill-opacity:1;stroke:#000000;stroke-width:0.509385px;stroke-linecap:butt;stroke-linejoin:miter;stroke-opacity:1"
       d="m 38.583083,4.4241118 c 1.041325,-0.010773 1.976958,-0.1618 2.985239,-0.4222688 1.137543,-0.2938609 2.203578,-0.8158967 3.304104,-1.2272396 0.68906,-0.25755 1.362899,-0.5592494 2.065585,-0.7768973 0.573934,-0.1777691 1.150996,-0.3890028 1.750414,-0.430186 0.476137,-0.032713 0.98244,-0.032606 1.424067,0.1483399 0.436247,0.1787395 0.82123,0.5062469 1.10513,0.8826236 0.274288,0.3636319 0.433201,0.8150909 0.526607,1.2608907 0.116125,0.5542161 0.05243,1.1327014 0.02965,1.6984935 -0.02847,0.7074346 -0.100247,1.4140363 -0.207676,2.113846 -0.173634,1.1310802 -0.443755,2.2457013 -0.704616,3.3599022 -0.281181,1.201003 -0.597926,2.393675 -0.927126,3.582413 -0.288959,1.043419 -0.593948,2.082621 -0.91971,3.115141 -0.294282,0.932739 -0.620201,1.855205 -0.934542,2.781376 -0.41411,1.220129 -0.816778,2.444355 -1.253474,3.656583 -0.194381,0.539579 -1.318275,3.443381 -1.466598,3.387213 -0.18237,-0.06906 1.135274,-3.111275 1.29601,-3.772897 0.296595,-1.220868 0.644739,-2.428641 0.971626,-3.641749 0.406662,-1.509138 0.851538,-3.008221 1.231224,-4.524372 0.285265,-1.13913 0.554684,-2.282814 0.786199,-3.434072 0.239442,-1.190661 0.473438,-2.38458 0.623029,-3.5898298 0.142001,-1.1441087 0.357939,-2.3002206 0.259597,-3.4489064 -0.0537,-0.6273164 -0.03184,-1.3702443 -0.459857,-1.832 C 49.871317,3.0983632 49.53279,3.0619824 49.244677,3.0360868 48.6377,2.9815308 48.0306,3.1669493 47.43493,3.295682 45.947496,3.6171359 44.538834,4.2495904 43.051481,4.5714065 42.406972,4.7108576 41.750258,4.795252 41.093391,4.8532526 40.49954,4.9056886 39.901726,4.9324036 39.305894,4.9125886 38.834071,4.8968996 38.318977,4.9826636 37.896666,4.7716652 37.821536,4.7341292 37.725773,4.6702264 37.726073,4.58624 c 1.83e-4,-0.05073 0.05866,-0.088185 0.103838,-0.1112547 0.106513,-0.054389 0.236421,-0.0448 0.356019,-0.044505 0.0986,2.425e-4 0.298566,-0.00535 0.397157,-0.00637 z"
       id="path859"
       sodipodi:nodetypes="ssssssssssssssssssssssssssssssssss" />
    <text
       xml:space="preserve"
       style="font-style:normal;font-variant:normal;font-weight:bold;font-stretch:normal;font-size:13.319px;line-height:1.25;font-family:Verdana;-inkscape-font-specification:'Verdana, Bold';font-variant-ligatures:normal;font-variant-caps:normal;font-variant-numeric:normal;font-variant-east-asian:normal;fill:#b5dd9c;fill-opacity:1;stroke:none;stroke-width:0.332978;stroke-opacity:1"
       x="2.5120816"
       y="12.18131"
       id="text887-9"><tspan
         sodipodi:role="line"
         id="tspan885-9"
         x="2.5120816"
         y="12.18131"
         style="fill:#b5dd9c;fill-opacity:1;stroke:none;stroke-width:0.332978;stroke-opacity:1">DR.</tspan></text>
    <path
       style="fill:none;stroke:#000000;stroke-width:1px;stroke-linecap:butt;stroke-linejoin:miter;stroke-opacity:1"
       d="M 3.7477357,14.00253 H 32.988458"
       id="path957"
       sodipodi:nodetypes="cc" />
    <path
       style="fill:none;stroke:#000000;stroke-width:1px;stroke-linecap:butt;stroke-linejoin:miter;stroke-opacity:1"
       d="m 49.767,14.00253 h 62.56143"
       id="path957-2"
       sodipodi:nodetypes="cc" />
    <text
       xml:space="preserve"
       style="font-style:normal;font-variant:normal;font-weight:bold;font-stretch:normal;font-size:8.78799px;line-height:1.25;font-family:Verdana;-inkscape-font-specification:'Verdana, Bold';font-variant-ligatures:normal;font-variant-caps:normal;font-variant-numeric:normal;font-variant-east-asian:normal;fill:#b5dd9c;fill-opacity:1;stroke:none;stroke-width:0.219701;stroke-opacity:1"
       x="53.635986"
       y="12.245929"
       id="text887-9-4"><tspan
         sodipodi:role="line"
         id="tspan885-9-9"
         x="53.635986"
         y="12.245929"
         style="fill:#b5dd9c;fill-opacity:1;stroke:none;stroke-width:0.219701;stroke-opacity:1">MEDEFINDT</tspan></text>
    <text
       xml:space="preserve"
       style="font-style:normal;font-variant:normal;font-weight:bold;font-stretch:normal;font-size:3.30522px;line-height:1.25;font-family:Verdana;-inkscape-font-specification:'Verdana, Bold';font-variant-ligatures:normal;font-variant-caps:normal;font-variant-numeric:normal;font-variant-east-asian:normal;fill:#b5dd9c;fill-opacity:1;stroke:#000000;stroke-width:0.0826313;stroke-opacity:1"
       x="54.492596"
       y="18.920183"
       id="text887-9-4-8"><tspan
         sodipodi:role="line"
         id="tspan1065"
         x="54.492596"
         y="18.920183"
         style="stroke:#000000;stroke-width:0.0826313;stroke-opacity:1">FACHZAHNÄRZTIN </tspan><tspan
         sodipodi:role="line"
         x="54.492596"
         y="23.051708"
         style="stroke:#000000;stroke-width:0.0826313;stroke-opacity:1"
         id="tspan1071">FÜR </tspan><tspan
         sodipodi:role="line"
         x="54.492596"
         y="27.183233"
         style="stroke:#000000;stroke-width:0.0826313;stroke-opacity:1"
         id="tspan1073">KIEFERORTHOPÄDIE</tspan></text>
  </g>
</svg>
