<?xml version="1.0" encoding="UTF-8" standalone="no"?>
<svg
   xmlns:dc="http://purl.org/dc/elements/1.1/"
   xmlns:cc="http://creativecommons.org/ns#"
   xmlns:rdf="http://www.w3.org/1999/02/22-rdf-syntax-ns#"
   xmlns:svg="http://www.w3.org/2000/svg"
   xmlns="http://www.w3.org/2000/svg"
   xmlns:sodipodi="http://sodipodi.sourceforge.net/DTD/sodipodi-0.dtd"
   xmlns:inkscape="http://www.inkscape.org/namespaces/inkscape"
   width="118"
   height="30"
   viewBox="0 0 118 30"
   fill="none"
   version="1.1"
   id="svg12"
   sodipodi:docname="logo2.svg"
   inkscape:version="1.0.2-2 (e86c870879, 2021-01-15)">
  <metadata
     id="metadata18">
    <rdf:RDF>
      <cc:Work
         rdf:about="">
        <dc:format>image/svg+xml</dc:format>
        <dc:type
           rdf:resource="http://purl.org/dc/dcmitype/StillImage" />
      </cc:Work>
    </rdf:RDF>
  </metadata>
  <defs
     id="defs16" />
  <sodipodi:namedview
     pagecolor="#ffffff"
     bordercolor="#666666"
     borderopacity="1"
     objecttolerance="10"
     gridtolerance="10"
     guidetolerance="10"
     inkscape:pageopacity="0"
     inkscape:pageshadow="2"
     inkscape:window-width="2560"
     inkscape:window-height="1369"
     id="namedview14"
     showgrid="false"
     inkscape:zoom="4.2923729"
     inkscape:cx="36.404548"
     inkscape:cy="1.4977514"
     inkscape:window-x="1912"
     inkscape:window-y="-8"
     inkscape:window-maximized="1"
     inkscape:current-layer="svg12" />
  <g
     id="g873">
    <path
       d="M30.003 13.3516V15.8242C30.003 20.1374 28.6474 23.5852 25.9362 26.1676C23.2527 28.7225 19.836 30 15.6862 30C11.1768 30 7.42813 28.5577 4.44028 25.6731C1.48009 22.7885 0 19.2445 0 15.0412C0 10.8379 1.46626 7.28022 4.39878 4.36813C7.35897 1.45604 10.9693 0 15.2297 0C17.9409 0 20.417 0.604396 22.6579 1.81319C24.9264 3.02198 26.6832 4.61538 27.9281 6.59341L22.2844 9.80769C21.6481 8.81868 20.6936 8.00824 19.421 7.37637C18.1761 6.74451 16.7652 6.42857 15.1882 6.42857C12.726 6.42857 10.6788 7.23901 9.04655 8.85989C7.44196 10.4808 6.63967 12.5549 6.63967 15.0824C6.63967 17.5824 7.46963 19.6291 9.12954 21.2225C10.7895 22.7885 13.0027 23.5714 15.7692 23.5714C19.6147 23.5714 22.0907 22.0879 23.1973 19.1209H15.4372V13.3516H30.003Z"
       fill="white"
       id="path2"
       style="fill:#ff4eff;fill-opacity:1" />
    <path
       d="m 75.3223,0.5594376 v 6.346157 H 67.8527 V 29.405615 H 61.213 V 6.9055946 h -7.4696 v -6.346157 z"
       fill="white"
       id="path6"
       style="fill:#ff4eff;fill-opacity:1" />
    <path
       d="M78.162 20.0687V14.1346H93.9312V20.0687H78.162Z"
       fill="white"
       id="path8"
       style="fill:#ff4eff;fill-opacity:1" />
    <path
       d="M111.817 12.2802C113.67 12.9121 115.164 13.9423 116.299 15.3709C117.433 16.772 118 18.4341 118 20.3571C118 23.3791 116.976 25.7418 114.929 27.4451C112.882 29.1484 110.378 30 107.418 30C105.122 30 103.061 29.478 101.235 28.4341C99.4366 27.3901 98.1087 25.8516 97.251 23.8187L102.978 20.522C103.697 22.5549 105.177 23.5714 107.418 23.5714C108.718 23.5714 109.7 23.2692 110.364 22.6648C111.028 22.0604 111.36 21.2912 111.36 20.3571C111.36 19.4231 111.028 18.6538 110.364 18.0495C109.7 17.4451 108.718 17.1429 107.418 17.1429H106.049L103.517 13.3929L108.787 6.75824H98.164V0.576923H116.838V5.93407L111.817 12.2802Z"
       fill="white"
       id="path10"
       style="fill:#ff4eff;fill-opacity:1" />
    <text
       xml:space="preserve"
       style="font-weight:bold;font-size:39.6292px;line-height:1.25;font-family:Verdana;-inkscape-font-specification:'Verdana, Bold';fill:#000000;fill-opacity:1;stroke-width:6.28625"
       x="28.704891"
       y="29.388746"
       id="text865"><tspan
         sodipodi:role="line"
         id="tspan863"
         x="28.704891"
         y="29.388746"
         style="fill:#000000;fill-opacity:1;stroke-width:6.28625">X</tspan></text>
  </g>
</svg>
